PathFileType	4	(X/Y/Z)	C:\Users\Basilio\Documents\Thesis Gigler\squatting_fais\c3dfiles\077\SLS_back_pre1\markers_experimental.trc
DataRate	CameraRate	NumFrames	NumMarkers	Units	OrigDataRate	OrigDataStartFrame	OrigNumFrames
200.000000	200.000000	4	60	mm	200.000000	1191	1588
Frame#	Time	FHD			RBHD			C7			T10			CLAV			LSHO			LUUPA			LMUPA			LDUPA			LLEP			LMEP			LRAD			LUL			LRFIN			RSHO			RUPA1			RMUPA			RDUPA			RLEP			RMEP			RRAD			RUL			RUFIN			LASI			RASI			USACR			LSACR			RSACR			LTHI1			LTHI2			LTHI3			LTHI4			LLFC			LMFC			LTIB1			LTIB2			LTIB3			LTIB4			LLMAL			LHEE			LMT1			LMT2			LMT5			RTHI			RTHI2			RTHI3			RTHI4			RLFC			RMFC			RTIB1			RTIB2			RTIB3			RTIB4			RLMAL			RMMAL			RHEE			RMT1			RMT2			RMT5			LBHD			
		X1	Y1	Z1	X2	Y2	Z2	X3	Y3	Z3	X4	Y4	Z4	X5	Y5	Z5	X6	Y6	Z6	X7	Y7	Z7	X8	Y8	Z8	X9	Y9	Z9	X10	Y10	Z10	X11	Y11	Z11	X12	Y12	Z12	X13	Y13	Z13	X14	Y14	Z14	X15	Y15	Z15	X16	Y16	Z16	X17	Y17	Z17	X18	Y18	Z18	X19	Y19	Z19	X20	Y20	Z20	X21	Y21	Z21	X22	Y22	Z22	X23	Y23	Z23	X24	Y24	Z24	X25	Y25	Z25	X26	Y26	Z26	X27	Y27	Z27	X28	Y28	Z28	X29	Y29	Z29	X30	Y30	Z30	X31	Y31	Z31	X32	Y32	Z32	X33	Y33	Z33	X34	Y34	Z34	X35	Y35	Z35	X36	Y36	Z36	X37	Y37	Z37	X38	Y38	Z38	X39	Y39	Z39	X40	Y40	Z40	X41	Y41	Z41	X42	Y42	Z42	X43	Y43	Z43	X44	Y44	Z44	X45	Y45	Z45	X46	Y46	Z46	X47	Y47	Z47	X48	Y48	Z48	X49	Y49	Z49	X50	Y50	Z50	X51	Y51	Z51	X52	Y52	Z52	X53	Y53	Z53	X54	Y54	Z54	X55	Y55	Z55	X56	Y56	Z56	X57	Y57	Z57	X58	Y58	Z58	X59	Y59	Z59	X60	Y60	Z60	

1192	5.955	-132.5124664306641	1848.901611328125	-1105.87939453125	-279.9282226562501	1737.5400390625	-1027.693725585938	-323.1525268554688	1602.492065429688	-1105.24755859375	-370.2821655273438	1282.281616210938	-1060.296630859375	-161.1588439941407	1545.890991210938	-1101.100463867188	-183.0960235595703	1571.129028320313	-1275.250366210938	-20.72643852233887	1505.504150390625	-1375.86572265625	9.985331535339357	1535.715942382813	-1350.542846679688	47.74114227294923	1498.36474609375	-1381.218627929688	112.6599960327149	1505.666259765625	-1376.91162109375	115.2296752929688	1437.825317382813	-1343.175659179688	404.7996826171876	1535.875854492188	-1259.526977539063	410.061492919922	1531.13232421875	-1339.640747070313	505.5090637207032	1551.520629882813	-1272.152709960938	-165.4878997802735	1593.907592773438	-941.254821777344	-9.250075340270998	1545.833740234375	-831.2762451171877	18.93889045715332	1570.071533203125	-863.9114379882815	60.64465332031251	1540.97509765625	-829.1435546875002	126.9585266113282	1542.059936523438	-839.221862792969	125.2395782470703	1467.790405273438	-865.9468994140627	403.7428283691407	1543.475463867188	-956.7207031250002	420.4483642578126	1558.15966796875	-880.395202636719	500.9556884765626	1566.7568359375	-963.3201293945315	-225.9494781494141	1053.930053710938	-1185.792236328125	-219.1233978271485	1074.490234375	-912.1089477539065	-399.3741760253907	1188.098266601563	-1048.683349609375	-412.9966735839845	1160.848876953125	-1077.245239257813	-414.5902709960939	1158.217895507813	-1021.305969238281	-301.9361572265626	845.8465576171877	-1229.434204101563	-273.6594543457032	767.7817382812501	-1223.656372070313	-222.9394683837891	768.6151123046877	-1223.058471679688	-298.0580444335938	718.1658935546876	-1199.06201171875	-267.0173034667969	571.7771606445314	-1166.713500976563	-253.8113098144532	564.4497680664064	-1034.031982421875	-250.2014923095704	353.7980346679688	-1075.938598632813	-284.1813964843751	305.2003173828126	-1142.510498046875	-253.2698211669922	303.3051452636719	-1106.51806640625	-269.4670715332032	228.9662475585938	-1068.437622070313	-341.6226806640626	113.2446517944336	-1099.15673828125	-398.5759277343751	84.33535003662111	-1045.489013671875	-188.1775970458985	53.90792465209962	-1026.28466796875	-182.7870635986328	56.18622970581056	-1068.927734375	-312.9828796386719	131.1532440185547	-1016.804870605469	-228.2635345458985	765.2702636718751	-824.8070068359377	-172.795654296875	722.7382202148439	-822.3499755859377	-141.2870330810547	731.6015014648439	-828.5879516601565	-185.613754272461	641.7963256835939	-835.2819824218752	-193.9136962890626	605.2764892578126	-842.418640136719	-170.8326873779297	577.5103759765626	-968.6975097656252	-301.6100463867188	538.6816406250001	-886.8855590820315	-389.1961669921876	597.0959472656251	-868.7281494140627	-386.6063537597657	555.2947387695314	-889.7810058593752	-421.4290466308595	549.9606323242189	-938.5203857421877	-606.0859375000001	609.4414672851564	-932.354431152344	-579.0127563476564	585.4059448242189	-1018.188232421875	-613.5090332031251	679.4672851562501	-988.250915527344	-677.6893920898439	466.1729736328126	-1020.735473632813	-688.7974853515626	464.5582885742189	-983.5504150390627	-720.2271118164064	484.8840942382814	-941.8073730468752	-275.9995422363282	1743.343383789063	-1173.920288085938	
1193	5.96	-132.6965637207032	1848.674926757813	-1105.696411132813	-280.3085937500001	1737.57373046875	-1027.571533203125	-324.0527038574219	1603.223510742188	-1104.951416015625	-370.2691345214844	1282.213256835938	-1060.293090820313	-161.3820343017578	1545.978515625	-1101.02587890625	-183.4725952148438	1571.185546875	-1275.277954101563	-21.13436126708985	1505.624633789063	-1375.873168945313	9.742649078369142	1535.883544921875	-1350.56787109375	47.5038185119629	1498.59423828125	-1381.136352539063	112.5188674926758	1505.742431640625	-1376.838745117188	114.9126815795899	1438.028076171875	-1343.095581054688	404.3404846191407	1536.528076171875	-1259.757934570313	409.6809692382814	1531.676147460938	-1339.873291015625	503.9185791015626	1552.07666015625	-1272.155639648438	-165.8058319091797	1594.053466796875	-941.1838378906252	-9.546204566955568	1546.081298828125	-831.3236083984377	18.71133804321289	1570.246337890625	-863.9934692382815	60.34899520874025	1541.3154296875	-829.2088623046877	126.6728668212891	1542.368041992188	-839.2935791015627	125.0413894653321	1468.32568359375	-866.0374755859377	406.4297485351564	1545.582885742188	-961.8853149414065	420.1520996093751	1558.826904296875	-880.5131835937502	500.6399230957032	1567.486450195313	-963.3516235351565	-225.7166137695313	1053.909057617188	-1185.622192382813	-218.8577880859376	1074.515380859375	-912.141052246094	-399.2656860351564	1187.916381835938	-1048.580810546875	-412.8813781738282	1160.625244140625	-1077.172119140625	-414.3586730957032	1158.127075195313	-1021.222900390625	-301.2994079589844	845.8371582031252	-1229.288940429688	-273.1730957031251	767.6974487304689	-1223.694702148438	-222.2367553710938	768.664978027344	-1223.12548828125	-297.5446777343751	718.1264038085939	-1199.040405273438	-266.5177917480469	571.7249755859376	-1166.770751953125	-253.6250762939454	565.3411865234376	-1034.068237304688	-249.7774047851563	353.7427978515626	-1075.856689453125	-283.8004760742188	305.1734924316407	-1142.5078125	-252.9288482666016	303.2793884277344	-1106.451049804688	-268.9230346679688	228.7321166992188	-1068.116333007813	-341.5407714843751	113.2231903076172	-1099.162963867188	-398.5373535156251	84.4069061279297	-1045.43212890625	-188.1470031738282	53.8642044067383	-1026.224609375	-182.763656616211	56.15461730957033	-1068.937255859375	-312.9465637207032	131.1915588378907	-1016.781127929688	-227.4724884033204	765.2897949218751	-824.7446899414065	-171.9133911132813	722.9487304687501	-822.5750122070315	-140.3440246582032	731.7905273437501	-828.7391357421877	-184.4860229492188	642.0261840820314	-835.4119873046877	-192.6790924072266	605.5609741210939	-842.4827880859377	-169.7089538574219	577.6697998046876	-968.9060058593752	-300.3847351074219	538.7412109375001	-886.8972167968752	-388.0215759277345	597.1188354492189	-868.5046997070315	-385.4517517089845	555.0247192382814	-889.771667480469	-420.4606323242189	550.1959228515626	-938.2600097656252	-604.9767456054689	609.2866210937501	-931.7672119140627	-578.1084594726564	585.0955810546876	-1017.817321777344	-612.6610107421876	679.1670532226564	-987.701843261719	-677.7944335937501	465.4291076660157	-1019.705322265625	-687.6138305664064	463.7992248535157	-983.0908203125002	-719.0725708007814	484.502655029297	-941.2940673828127	-276.4228210449219	1743.412475585938	-1173.897216796875	
1194	5.965	-133.1161346435547	1848.653564453125	-1105.55810546875	-280.7538452148438	1737.630737304688	-1027.484985351563	-324.1656494140626	1602.990234375	-1104.93603515625	-370.2451171875001	1282.143188476563	-1060.17041015625	-161.7200317382813	1546.109741210938	-1100.988037109375	-183.7234649658203	1571.20166015625	-1275.2841796875	-21.53917312622071	1505.890014648438	-1375.88427734375	9.55936908721924	1535.9921875	-1350.5439453125	47.26463699340821	1498.7021484375	-1381.0556640625	112.0419616699219	1505.943481445313	-1376.850952148438	114.589828491211	1438.272583007813	-1343.0595703125	404.1018676757814	1537.083618164063	-1259.93212890625	409.3791503906251	1532.251098632813	-1340.059326171875	504.310272216797	1552.233032226563	-1272.360961914063	-166.129867553711	1594.1552734375	-941.1770629882815	-9.758531570434572	1546.267333984375	-831.3909301757815	18.51605415344239	1570.5712890625	-863.9348754882815	60.18035125732423	1541.755859375	-829.0982666015627	126.3871307373047	1542.645385742188	-839.3084106445315	124.8406143188477	1468.581298828125	-865.9221191406252	405.0923767089845	1547.379760742188	-962.2271728515627	419.5215454101564	1559.357666015625	-880.9291992187502	500.3687744140626	1568.165893554688	-963.3955078125002	-225.4823913574219	1053.796142578125	-1185.65966796875	-218.5727233886719	1074.575317382813	-912.090270996094	-399.2121582031251	1187.6533203125	-1048.432739257813	-412.7821044921876	1160.395385742188	-1077.026733398438	-414.1986389160157	1157.979248046875	-1021.115417480469	-301.0214843750001	845.8818359375002	-1229.249267578125	-272.7839660644532	767.5726318359376	-1223.16064453125	-223.1397552490235	769.0957641601565	-1223.661376953125	-297.1744995117188	718.0623779296876	-1199.027954101563	-266.1579895019532	571.8142089843751	-1166.85400390625	-252.6235656738282	564.4152832031251	-1034.123413085938	-249.4695892333985	353.7200622558594	-1075.833129882813	-283.5057373046876	305.1113281250001	-1142.5224609375	-252.6770172119141	303.1720886230469	-1106.476684570313	-269.1014404296876	229.0849151611329	-1068.374145507813	-341.3199157714844	113.1633071899414	-1099.103515625	-398.5565185546876	84.44271850585939	-1045.419555664063	-188.1129302978516	53.8924903869629	-1026.238037109375	-183.1481475830078	55.08527755737306	-1068.735473632813	-312.8664245605469	131.2075653076172	-1016.729309082031	-226.5612487792969	765.3293457031251	-824.779724121094	-170.954833984375	723.1933593750001	-822.8616333007815	-139.2953643798828	732.3408813476564	-828.930114746094	-183.506820678711	642.1477661132814	-835.518493652344	-191.6407165527344	605.6518554687501	-842.6750488281252	-168.6046905517578	577.8562011718751	-969.0601806640627	-299.2061157226563	538.9004516601564	-887.1526489257815	-386.9125061035157	597.0665283203126	-868.3450317382815	-384.4176330566407	554.9491577148439	-889.6546020507815	-419.2248840332032	549.8233642578126	-938.185485839844	-604.0374145507814	608.8269042968751	-931.3618774414065	-577.0360717773439	584.6624145507814	-1017.258056640625	-611.7755737304689	678.8625488281251	-987.2645263671877	-676.8360595703126	464.945281982422	-1019.3544921875	-686.7134399414064	463.5983276367189	-982.5476684570315	-717.7858276367189	483.9894409179689	-940.7584228515627	-276.6612243652344	1743.322021484375	-1173.825073242188	
1195	5.97	-133.3712615966797	1848.491821289063	-1105.38916015625	-281.2245178222657	1737.67919921875	-1027.439575195313	-324.4105834960938	1602.986083984375	-1104.888305664063	-370.2709655761719	1282.069091796875	-1060.083862304688	-161.8654022216797	1546.20556640625	-1100.91455078125	-184.0365295410157	1571.33251953125	-1275.352294921875	-21.94323539733887	1506.0625	-1375.851928710938	9.321158409118654	1536.140625	-1350.493286132813	46.9244499206543	1498.85986328125	-1381.105712890625	111.3590621948242	1506.307983398438	-1376.97314453125	114.362419128418	1438.453247070313	-1342.665405273438	403.8355102539064	1537.561767578125	-1260.012329101563	408.9829711914064	1532.7568359375	-1340.181518554688	503.9621887207032	1553.021240234375	-1272.615478515625	-166.5052947998047	1594.249389648438	-941.1673583984377	-10.07379150390625	1546.427124023438	-831.454528808594	18.24737358093262	1570.8056640625	-863.9201660156252	59.77132797241212	1541.876220703125	-829.212341308594	126.0417175292969	1542.924072265625	-839.4507446289065	124.6886978149414	1469.213745117188	-866.0261230468752	403.0132446289064	1545.615356445313	-957.028991699219	419.6496887207032	1560.316528320313	-880.5600585937502	500.1305236816407	1569.073486328125	-963.6850585937502	-225.2638854980469	1053.793334960938	-1185.521484375	-218.3557739257813	1074.688598632813	-912.057067871094	-399.1391601562501	1187.342651367188	-1048.369140625	-412.6424560546876	1160.245239257813	-1076.9443359375	-414.073211669922	1157.8583984375	-1021.004333496094	-300.8191528320313	845.8250122070315	-1229.27001953125	-272.3737182617188	767.5649414062501	-1223.145141601563	-222.7062683105469	769.1582031250002	-1223.663818359375	-296.4486999511719	717.9074096679689	-1198.976928710938	-265.7095642089844	571.8077392578126	-1166.85302734375	-251.7239990234376	564.3288574218751	-1034.163940429688	-249.0529937744141	353.7166442871094	-1075.827880859375	-283.2402648925782	305.0630798339844	-1142.557250976563	-252.3736877441407	303.0630493164063	-1106.488403320313	-268.8782958984376	229.1136169433594	-1068.424560546875	-341.4174499511719	113.2247085571289	-1099.12890625	-398.4866333007814	84.42607879638673	-1045.419067382813	-188.0381164550782	53.93787002563478	-1026.2080078125	-182.7196197509766	56.11026000976564	-1068.910888671875	-312.7041015625001	131.2915802001953	-1016.763977050781	-225.7484588623047	765.3336181640626	-824.9038696289065	-170.2229156494141	723.1865234375001	-822.9709472656252	-138.4270172119141	732.4470214843751	-829.1289062500002	-182.4839935302735	642.1503295898439	-835.577575683594	-190.5050659179688	605.6932373046876	-842.8894042968752	-167.6249542236328	577.9505004882814	-969.1516113281252	-298.0969543457032	538.6834106445314	-887.422546386719	-385.9144287109376	596.9675903320314	-868.3206787109377	-383.2230834960938	554.7036132812501	-889.466003417969	-418.2753295898439	549.8261108398439	-937.842224121094	-603.1080932617189	608.3571777343751	-930.8960571289065	-576.0770263671876	584.2723999023439	-1016.696228027344	-611.2934570312501	678.5367431640626	-986.9705810546877	-674.6052246093751	464.716278076172	-1019.028747558594	-685.5498046875001	463.1061096191407	-981.7290649414065	-716.2324829101564	483.6267089843751	-940.8601074218752	-276.9381103515626	1743.145385742188	-1173.778442382813	
